<svg xmlns="http://www.w3.org/2000/svg" width="183" viewBox="0 0 183 60" height="60" version="1.0"><path fill="#FFF" d="M-18.3 -6H201.29999999999998V66H-18.3z"/><path fill="#FFF" d="M-18.3 -6H201.29999999999998V66H-18.3z"/><path fill="#FFF" d="M-18.3 -6H201.29999999999998V66H-18.3z"/><g><g><g><path d="M 1.683594 -24.941406 L 1.683594 0.132812 C 5.757812 0.132812 9.019531 -2.894531 9.019531 -6.597656 L 9.019531 -31.675781 C 4.980469 -31.675781 1.683594 -28.644531 1.683594 -24.941406 Z M 1.683594 -24.941406" transform="translate(7.43 38.759)"/></g></g></g><g><g><g><path d="M 21.339844 -24.875 L 21.339844 -13.296875 L 8.550781 -31.742188 C 4.746094 -31.742188 1.683594 -28.679688 1.683594 -24.875 L 1.683594 0.0664062 C 5.488281 0.0664062 8.550781 -2.996094 8.550781 -6.765625 L 8.550781 -19.523438 L 21.339844 -2.421875 L 21.339844 0.0664062 C 25.109375 0.0664062 28.375 -3.03125 28.375 -6.800781 L 28.375 -31.742188 C 24.570312 -31.742188 21.339844 -28.679688 21.339844 -24.875 Z M 21.339844 -24.875" transform="translate(18.233 38.759)"/></g></g></g><g><g><g><path d="M 20.429688 -15.617188 C 18.679688 -17.941406 15.886719 -19.457031 12.757812 -19.457031 L 10.46875 -19.457031 C 9.1875 -19.457031 8.113281 -20.566406 8.113281 -21.84375 L 8.113281 -22.113281 C 8.113281 -23.394531 9.1875 -24.472656 10.46875 -24.472656 L 13.734375 -24.472656 C 17.46875 -24.472656 20.5 -27.601562 20.5 -31.675781 L 10.46875 -31.675781 C 5.21875 -31.675781 0.910156 -27.367188 0.910156 -22.113281 L 0.910156 -21.84375 C 0.910156 -19.691406 1.617188 -17.707031 2.828125 -16.125 C 4.542969 -13.800781 7.335938 -12.285156 10.46875 -12.285156 L 12.757812 -12.285156 C 14.035156 -12.285156 15.113281 -11.175781 15.113281 -9.894531 L 15.113281 -9.625 C 15.113281 -8.347656 14.035156 -7.269531 12.757812 -7.269531 L 8.71875 -7.269531 C 4.980469 -7.269531 1.917969 -4.140625 1.917969 -0.0664062 L 12.757812 -0.0664062 C 18.042969 -0.0664062 22.316406 -4.375 22.316406 -9.625 L 22.316406 -9.894531 C 22.316406 -12.050781 21.609375 -14.035156 20.429688 -15.617188 Z M 20.429688 -15.617188" transform="translate(48.39 38.759)"/></g></g></g><g><g><g><path d="M 6.632812 -31.539062 C 2.859375 -31.539062 -0.167969 -28.78125 -0.167969 -24.671875 L 8.617188 -24.671875 L 8.617188 -0.0664062 C 12.691406 -0.0664062 15.988281 -3.097656 15.988281 -6.867188 L 15.988281 -24.671875 L 17.972656 -24.671875 C 21.710938 -24.671875 24.773438 -27.464844 24.773438 -31.539062 Z M 6.632812 -31.539062" transform="translate(71.343 38.759)"/></g></g></g><g><g><g><path d="M 17.707031 -27.296875 C 17.269531 -28.980469 16.359375 -30.160156 14.878906 -31 C 14.105469 -31.4375 13.226562 -31.707031 12.320312 -31.707031 C 11.378906 -31.707031 10.5 -31.4375 9.726562 -31 C 8.28125 -30.160156 7.335938 -28.980469 6.933594 -27.296875 L 0.203125 -0.269531 C 3.9375 0.640625 7.675781 -1.414062 8.515625 -4.847656 L 8.886719 -6.363281 L 9.019531 -7.101562 L 15.585938 -7.101562 L 15.71875 -6.363281 L 16.089844 -4.847656 C 16.929688 -1.414062 20.667969 0.640625 24.402344 -0.269531 Z M 10.199219 -12.722656 L 12.320312 -22.820312 L 14.40625 -12.722656 Z M 10.199219 -12.722656" transform="translate(96.013 38.759)"/></g></g></g><g><g><g><path d="M 21.339844 -24.875 L 21.339844 -13.296875 L 8.550781 -31.742188 C 4.746094 -31.742188 1.683594 -28.679688 1.683594 -24.875 L 1.683594 0.0664062 C 5.488281 0.0664062 8.550781 -2.996094 8.550781 -6.765625 L 8.550781 -19.523438 L 21.339844 -2.421875 L 21.339844 0.0664062 C 25.109375 0.0664062 28.375 -3.03125 28.375 -6.800781 L 28.375 -31.742188 C 24.570312 -31.742188 21.339844 -28.679688 21.339844 -24.875 Z M 21.339844 -24.875" transform="translate(120.75 38.759)"/></g></g></g><g><g><g><path d="M 6.632812 -31.539062 C 2.859375 -31.539062 -0.167969 -28.78125 -0.167969 -24.671875 L 8.617188 -24.671875 L 8.617188 -0.0664062 C 12.691406 -0.0664062 15.988281 -3.097656 15.988281 -6.867188 L 15.988281 -24.671875 L 17.972656 -24.671875 C 21.710938 -24.671875 24.773438 -27.464844 24.773438 -31.539062 Z M 6.632812 -31.539062" transform="translate(150.906 38.759)"/></g></g></g><g><g><g><path d="M 2.652344 0.128906 C 3.816406 0.128906 4.5625 -0.511719 4.5625 -1.367188 C 4.5625 -2.246094 4.0625 -2.800781 2.671875 -3.097656 C 1.390625 -3.367188 1.078125 -3.804688 1.078125 -4.382812 C 1.078125 -4.949219 1.6875 -5.429688 2.609375 -5.429688 C 3.292969 -5.429688 3.816406 -5.28125 4.242188 -5.097656 L 4.242188 -5.527344 C 3.785156 -5.695312 3.28125 -5.824219 2.617188 -5.824219 C 1.421875 -5.824219 0.621094 -5.160156 0.621094 -4.382812 C 0.621094 -3.546875 1.132812 -2.992188 2.5 -2.703125 C 3.75 -2.449219 4.105469 -2.03125 4.105469 -1.355469 C 4.105469 -0.714844 3.539062 -0.265625 2.628906 -0.265625 C 1.796875 -0.265625 1.070312 -0.585938 0.566406 -0.984375 L 0.382812 -0.609375 C 0.953125 -0.191406 1.753906 0.128906 2.652344 0.128906 Z M 2.652344 0.128906" transform="translate(56.689 52.259)"/></g></g></g><g><g><g><path d="M 0.832031 2.363281 L 1.292969 2.363281 L 1.292969 -1.324219 L 1.355469 -1.324219 C 1.859375 -0.425781 2.800781 0.128906 3.890625 0.128906 C 5.515625 0.128906 6.808594 -1.089844 6.808594 -2.855469 C 6.808594 -4.605469 5.515625 -5.824219 3.890625 -5.824219 C 2.757812 -5.824219 1.796875 -5.238281 1.304688 -4.285156 L 1.25 -4.285156 L 1.078125 -5.707031 L 0.832031 -5.707031 Z M 3.824219 -0.300781 C 2.425781 -0.300781 1.304688 -1.347656 1.304688 -2.855469 C 1.304688 -4.359375 2.425781 -5.398438 3.824219 -5.398438 C 5.214844 -5.398438 6.335938 -4.359375 6.335938 -2.855469 C 6.335938 -1.347656 5.214844 -0.300781 3.824219 -0.300781 Z M 3.824219 -0.300781" transform="translate(70.34 52.259)"/></g></g></g><g><g><g><path d="M 3.515625 0.128906 C 5.171875 0.128906 6.496094 -1.089844 6.496094 -2.855469 C 6.496094 -4.605469 5.171875 -5.824219 3.515625 -5.824219 C 1.859375 -5.824219 0.535156 -4.605469 0.535156 -2.855469 C 0.535156 -1.089844 1.859375 0.128906 3.515625 0.128906 Z M 3.515625 -0.300781 C 2.117188 -0.300781 0.992188 -1.347656 0.992188 -2.855469 C 0.992188 -4.359375 2.117188 -5.398438 3.515625 -5.398438 C 4.917969 -5.398438 6.039062 -4.359375 6.039062 -2.855469 C 6.039062 -1.347656 4.917969 -0.300781 3.515625 -0.300781 Z M 3.515625 -0.300781" transform="translate(86.205 52.259)"/></g></g></g><g><g><g><path d="M 0.832031 0 L 1.292969 0 L 1.292969 -3.152344 C 1.335938 -4.511719 2.0625 -5.386719 3.34375 -5.386719 C 3.589844 -5.386719 3.6875 -5.375 3.890625 -5.3125 L 3.953125 -5.761719 C 3.75 -5.804688 3.625 -5.824219 3.34375 -5.824219 C 2.339844 -5.824219 1.65625 -5.324219 1.316406 -4.5 L 1.25 -4.5 L 1.101562 -5.707031 L 0.832031 -5.707031 Z M 0.832031 0" transform="translate(101.79 52.259)"/></g></g></g><g><g><g><path d="M 3.324219 0.128906 C 4.039062 0.128906 4.5 -0.0976562 4.574219 -0.117188 L 4.476562 -0.535156 C 4.425781 -0.503906 4.007812 -0.308594 3.355469 -0.308594 C 2.414062 -0.308594 2.007812 -0.8125 2.007812 -1.871094 L 2.007812 -5.289062 L 4.574219 -5.289062 L 4.574219 -5.707031 L 2.007812 -5.707031 L 2.007812 -6.902344 L 1.796875 -6.902344 L 0.105469 -5.492188 L 0.105469 -5.324219 L 1.550781 -5.324219 L 1.550781 -1.816406 C 1.550781 -0.554688 2.125 0.128906 3.324219 0.128906 Z M 3.324219 0.128906" transform="translate(114.491 52.259)"/></g></g></g></svg>